# xmcd
#
# Track frame offsets:
#   150
#   15656
#   33029
#   47944
#   63261
#   77453
#   90614
#   104563
#   118808
#   132665
#   146108
#   161957
#   173388
#   190625
#
# Disc length: 2753 seconds
#
# Revision: 0
# Processed by: cddbd v1.5.1PL0 Copyright (c) Steve Scherf et al.
# Submitted via: Media_Universe 3.0
#
DISCID=b90abf0e
DTITLE=Tracy Byrd - Love Letter /Mixed
DYEAR=1900
DGENRE=Country
TTITLE0=Walking To Jerusalem
TTITLE1=Love Letters
TTITLE2=4 To 1 In Atlanta
TTITLE3=Heaven In My Womans Eyes
TTITLE4=Hanky Tonk Dancing Machine
TTITLE5=You Lied To Me
TTITLE6=Down On The Bottom
TTITLE7=Dont Need That Heartache
TTITLE8=Have A Good One
TTITLE9=Walkin In
TTITLE10=Im From The Country
TTITLE11=Im Goin Through The Big D
TTITLE12=La Grange
TTITLE13=Pass It On
EXTD=
EXTT0=
EXTT1=
EXTT2=
EXTT3=
EXTT4=
EXTT5=
EXTT6=
EXTT7=
EXTT8=
EXTT9=
EXTT10=
EXTT11=
EXTT12=
EXTT13=
PLAYORDER=
